<svg width="18" height="18" viewBox="0 0 18 18" fill="none" xmlns="http://www.w3.org/2000/svg"><g id="Icons/Arrow CTA extern_18"><g id="Group 12"><g id="Icones/Flèches CTA bleu ARA"><path id="Icone/Flèche blc" d="M7.08 11.15l-.708.707a1 1 0 001.414 0l-.707-.707zm6.496-6.497l1-.037a1 1 0 00-1.707-.67l.707.707zM6.578 10.65l-.707-.707a1 1 0 000 1.414l.707-.707zm7.451-7.15l.365-.932-.365.931zm.225.316l1-.038-1 .038zm.206 5.45l.037 1a1 1 0 00.962-1.037l-1 .038zm-.709.028l-1 .037a1 1 0 001.038.962l-.038-1zM6.578 10.65l-.707-.707a1 1 0 000 1.414l.707-.707zm6.497-6.497l.707.707a1 1 0 00-.67-1.706l-.037.999zM7.079 11.15l-.707.707a1 1 0 001.414 0l-.707-.707zM14.23 3.7l.932-.365-.931.365zm-.316-.225l.038-1-.038 1zm-5.451-.206l.038-1a1 1 0 00-1.037.962l.999.038zm-.027.709l-1-.038a1 1 0 00.962 1.037l.038-1zm-.649 7.88l6.497-6.497-1.414-1.414-6.497 6.497 1.414 1.414zm-1.915-.501l.501.501 1.414-1.414-.501-.501-1.414 1.414zm7.07-8.485l-7.07 7.07 1.414 1.415 7.071-7.071-1.414-1.414zm1.453-.304a1.355 1.355 0 00-1.452.304l1.414 1.414a.646.646 0 01-.692.144l.73-1.862zm.86 1.21a1.355 1.355 0 00-.86-1.21l-.73 1.862a.646.646 0 01-.41-.576l2-.076zm.205 5.451l-.206-5.45-1.998.075.205 5.45 1.999-.075zm-1.67 1.064l.709-.027-.076-1.998-.709.026.076 1.999zm-1.212-5.6l.175 4.638 1.998-.075-.175-4.64-1.998.076zm-5.292 6.664l6.497-6.497-1.415-1.414-6.496 6.497 1.414 1.414zm.501-.913l-.501-.501-1.414 1.414.501.501 1.414-1.414zm5.657-7.071l-7.071 7.071 1.414 1.414 7.071-7.07-1.414-1.415zm-.144.692a.645.645 0 01.144-.692l1.414 1.414c.381-.38.5-.95.304-1.452l-1.862.73zm.576.41a.645.645 0 01-.576-.41l1.862-.73a1.355 1.355 0 00-1.21-.86l-.076 2zm-5.45-.206l5.45.205.076-1.998L8.5 2.269l-.076 1.999zm1.01-.254l.026-.708-1.998-.076-.027.709 1.999.075zm3.677-.861l-4.639-.176-.076 1.999 4.64.175.075-1.998z" fill="#FFF"/></g><path id="Path" d="M11 11.62V16H2V7h4.57" stroke="#FFF" stroke-width="2" stroke-linejoin="round"/></g></g></svg>