<svg width="18" height="18" viewBox="0 0 18 18" fill="none" xmlns="http://www.w3.org/2000/svg"><g id="Icons/phone"><g id="Communication"><path id="Vector" d="M11.953 15.128c-1.432 0-3.162-1.085-5.44-3.407C4.25 9.41 3.209 7.67 3.237 6.239a3.648 3.648 0 011.47-2.577l.273-.26a.66.66 0 01.902.007l2.69 2.743a.638.638 0 01-.008.9l-.822.808a5.907 5.907 0 001.46 1.869c.71.654 1.143.83 1.257.797.013-.028.935-.946.935-.946l.52.522s-.954.95-1.005.997a.73.73 0 01-.144.097c-.926.472-2.69-1.513-3.106-2.074-.632-.847-.777-1.428-.443-1.78l.76-.745-2.55-2.6-.213.201a2.946 2.946 0 00-1.24 2.056c-.022 1.202.98 2.822 3.067 4.95 2.12 2.163 3.72 3.226 4.945 3.187a3.104 3.104 0 002.158-1.349l.082-.088-1.423-1.502.536-.507 1.482 1.566a.635.635 0 01.006.88l-.141.151a3.756 3.756 0 01-2.689 1.585l-.043.001zm2.334-2.108l.003.003-.003-.003zm0-.134v.001h0z" fill="#FFF" stroke="#FFF" stroke-width=".5"/></g></g></svg>