<svg width="18" height="18" viewBox="0 0 18 18" fill="none" xmlns="http://www.w3.org/2000/svg"><g id="Icons/search"><g id="Essentiels" fill="#017ACD" stroke="#017ACD" stroke-width=".5"><path id="Vector" d="M4.395 7.984a3.51 3.51 0 013.632-3.632l-.022.664a2.791 2.791 0 00-2.114.832 2.823 2.823 0 00-.832 2.113l-.664.023z"/><path id="Vector_2" d="M14.065 15a.936.936 0 01-.662-.273l-3.24-3.24.47-.47 3.24 3.24a.277.277 0 00.383 0 .271.271 0 000-.383l-3.24-3.241.47-.47 3.24 3.24A.935.935 0 0114.064 15h0z"/><path id="Vector_3" d="M7.739 12.477a4.739 4.739 0 114.738-4.739 4.744 4.744 0 01-4.738 4.739zm0-8.813a4.074 4.074 0 100 8.148 4.074 4.074 0 000-8.148v0z"/></g></g></svg>