<svg width="20" height="20" viewBox="0 0 20 20" fill="none" xmlns="http://www.w3.org/2000/svg"><mask id="mask0_588_20412" style="mask-type:alpha" maskUnits="userSpaceOnUse" x="0" y="0" width="20" height="20"><path fill-rule="evenodd" clip-rule="evenodd" d="M0 0h20v20H0V0z" fill="#fff"/></mask><g mask="url(#mask0_588_20412)"><path fill-rule="evenodd" clip-rule="evenodd" d="M20 10.062C20 4.505 15.523 0 10 0 4.476 0-.001 4.505-.001 10.062c0 5.022 3.657 9.184 8.438 9.939V12.97h-2.54v-2.91h2.54V7.846c0-2.522 1.493-3.915 3.777-3.915 1.095 0 2.239.197 2.239.197v2.476h-1.261c-1.242 0-1.63.775-1.63 1.571v1.888h2.774l-.444 2.908h-2.33V20C16.343 19.247 20 15.085 20 10.063z" fill="#353D4D"/></g></svg>