<svg width="28" height="20" id="Calque_1" xmlns="http://www.w3.org/2000/svg" version="1.1" viewBox="0 0 434.64 434.64"><defs><style>.st0{fill:#384050}</style></defs><path class="st0" d="M217.85 84.63c-71.92 0-130.43 58.51-130.43 130.43 0 24.8 6.98 48.92 20.2 69.75l3.02 4.76-12.93 47.32 46.08-14.29 4.96 3.1c20.68 12.94 44.57 19.79 69.1 19.79 71.92 0 130.43-58.51 130.43-130.43S289.77 84.63 217.85 84.63zm76.65 185.75l-3.38 6.46c-.61 1.17-1.41 2.23-2.37 3.14-3.61 3.43-13.42 10.9-30.54 11.16-18.13.05-55.93-18.51-82.3-43.8-24.35-23.35-38.07-53.01-37.92-65.98.32-27.03 16.95-36.14 21.04-37.8 2.59-1.05 7.84-1.34 12.14-.53 2.68.5 4.91 2.33 6 4.83l13.92 32.41c1.19 2.72.84 5.88-.92 8.27l-9.35 10.45a7.383 7.383 0 00-.55 7.93c1.71 3.13 8.6 15.75 20.56 25.85 13.56 11.44 32.25 20.29 32.25 20.29a7.062 7.062 0 009.29-1.43l12.42-15.05a6.857 6.857 0 018.26-1.81l29.17 14.05a6.86 6.86 0 013.88 5.93l.26 7.46c.1 2.85-.54 5.67-1.86 8.19z"/><path class="st0" d="M331.43 0H103.21C46.44 0 0 46.44 0 103.21v228.22c0 56.77 46.44 103.21 103.21 103.21h228.22c56.77 0 103.21-46.44 103.21-103.21V103.21C434.64 46.44 388.2 0 331.43 0zM217.85 371c-27.33 0-54.01-7.11-77.54-20.62l-79.48 24.65 22.26-81.45c-13.88-23.77-21.18-50.79-21.18-78.52 0-85.99 69.95-155.94 155.94-155.94s155.94 69.95 155.94 155.94S303.83 371 217.85 371z"/></svg>