<svg width="28" height="20" viewBox="0 0 28 20" fill="none" xmlns="http://www.w3.org/2000/svg"><mask id="mask0_588_20415" style="mask-type:alpha" maskUnits="userSpaceOnUse" x="0" y="0" width="28" height="20"><path fill-rule="evenodd" clip-rule="evenodd" d="M0 0h28v20H0V0z" fill="#fff"/></mask><g mask="url(#mask0_588_20415)"><path fill-rule="evenodd" clip-rule="evenodd" d="M27.414 3.118A3.544 3.544 0 0024.938.591c-2.184-.597-10.943-.597-10.943-.597s-8.759 0-10.943.597A3.544 3.544 0 00.576 3.118C-.01 5.347-.01 9.998-.01 9.998s0 4.65.586 6.879a3.545 3.545 0 002.476 2.527C5.236 20 13.995 20 13.995 20s8.759 0 10.943-.598a3.545 3.545 0 002.476-2.526c.586-2.23.586-6.88.586-6.88s0-4.65-.586-6.879z" fill="#017ACD"/></g><path fill-rule="evenodd" clip-rule="evenodd" d="M10.667 14.667L18 10.334 10.667 6v8.667z" fill="#fff"/></svg>