<svg width="20" height="20" viewBox="0 0 20 20" fill="none" xmlns="http://www.w3.org/2000/svg"><path fill-rule="evenodd" clip-rule="evenodd" d="M4.52 0A4.547 4.547 0 00.393 2.688 4.523 4.523 0 000 4.538v10.924a4.519 4.519 0 001.33 3.209A4.525 4.525 0 004.537 20h10.924a4.524 4.524 0 003.209-1.33A4.52 4.52 0 0020 15.46V4.54a4.523 4.523 0 00-1.33-3.209A4.524 4.524 0 0015.48 0H4.52z" fill="#017ACD"/><mask id="mask0_588_20421" style="mask-type:alpha" maskUnits="userSpaceOnUse" x="0" y="0" width="20" height="20"><path fill-rule="evenodd" clip-rule="evenodd" d="M4.52 0A4.547 4.547 0 00.393 2.688 4.523 4.523 0 000 4.538v10.924a4.519 4.519 0 001.33 3.209A4.525 4.525 0 004.537 20h10.924a4.524 4.524 0 003.209-1.33A4.52 4.52 0 0020 15.46V4.54a4.523 4.523 0 00-1.33-3.209A4.524 4.524 0 0015.48 0H4.52z" fill="#fff"/></mask><path fill-rule="evenodd" clip-rule="evenodd" d="M15.99 13.238a2.814 2.814 0 01-2.813 2.813H6.823a2.814 2.814 0 01-2.813-2.813V6.884a2.814 2.814 0 012.813-2.813h6.354a2.814 2.814 0 012.813 2.813v6.354zM13.104 2.682H6.896A4.239 4.239 0 002.657 6.92v6.208a4.239 4.239 0 004.239 4.24h6.208a4.239 4.239 0 004.239-4.24V6.92a4.239 4.239 0 00-4.24-4.238z" fill="#fff"/><path fill-rule="evenodd" clip-rule="evenodd" d="M10 12.53a2.47 2.47 0 110-4.94 2.47 2.47 0 010 4.94zm0-6.28a3.81 3.81 0 100 7.62 3.81 3.81 0 000-7.62zm3.938-1.031a.888.888 0 100 1.775.888.888 0 000-1.775z" fill="#fff"/></svg>