<svg width="28" height="20" id="Calque_1" xmlns="http://www.w3.org/2000/svg" version="1.1" viewBox="0 0 434.64 434.64"><path d="M331.43 0H103.21C46.44 0 0 46.44 0 103.21v228.22c0 56.77 46.44 103.21 103.21 103.21h228.22c56.77 0 103.21-46.44 103.21-103.21V103.21C434.64 46.44 388.19 0 331.43 0zm-7.51 194.59c-.05.18-.43.45-.67.4-14.32-1.89-28.02-6.52-40.48-13.74-2.09-1.21-5.64-4.07-7.47-4.82-.29-.12-.5-.21-.83-.15V272c-5.62 70.06-86.42 102.74-139.54 55.2-32.93-29.47-34.94-80.94-6.43-114.32 18.91-22.13 44.92-31.68 73.99-27.9.26.08.75.78.75.93v44.16s-.29.68-.45.7c-21.53-6.69-44.47 7.1-48.35 29.3-1.38 7.89-.47 15.62 2.94 22.88 3.36 7.17 11.6 14.56 18.86 17.75 23.3 10.24 48.94-4.37 52.44-29.25l-.02-180.02c.19-2.86.28-3.28 3.21-3.49 9.13-.65 19.02.52 28.24 0 3.25-.1 2.92 3.5 3.62 5.88 7.4 25.08 27.69 43.17 53.92 46.12 1.63.18 4.07 0 5.59.28.23.04.7.22.7.42v53.94z" fill="#1877bd"/></svg>