<svg id="Calque_2" data-name="Calque 2" xmlns="http://www.w3.org/2000/svg" viewBox="0 0 434.64 434.64" width="20" height="20"><g fill-rule="evenodd" stroke-width="0" id="Calque_1-2" data-name="Calque 1"><path d="M48.29 434.64h338.05c26.67 0 48.29-21.62 48.29-48.29V48.29C434.63 21.62 413.01 0 386.34 0H48.29C21.62 0 0 21.62 0 48.29v338.05c0 26.67 21.62 48.29 48.29 48.29z" fill="#384050"/><path d="M374.27 374.27h-64.5V264.42c0-30.12-11.44-46.95-35.28-46.95-25.93 0-39.48 17.52-39.48 46.95v109.85h-62.16V165h62.16v28.19s18.69-34.58 63.1-34.58 76.17 27.11 76.17 83.17v132.5zM98.7 137.6c-21.17 0-38.33-17.29-38.33-38.62S77.53 60.36 98.7 60.36s38.32 17.29 38.32 38.62-17.15 38.62-38.32 38.62zM66.6 374.27h64.81V165H66.6v209.27z" fill="#fff"/></g></svg>