<svg width="18" height="18" viewBox="0 0 18 18" fill="none" xmlns="http://www.w3.org/2000/svg"><g id="Icons/trains"><g id="Union" fill="#FFF"><path fill-rule="evenodd" clip-rule="evenodd" d="M10.366 12.73h-2.75l-.621 1.628h3.992l-.621-1.628zm-3.964 3.18l.335-.877h4.507l.335.878.63-.24-1.12-2.941h.327c1.546 0 2.584-.879 2.584-2.186v-.032l-.56-6.051a2.43 2.43 0 00-2.584-2.371h-3.71a2.422 2.422 0 00-2.582 2.34L4 10.544c0 1.306 1.04 2.186 2.584 2.186h.31l-1.123 2.94.63.24zm.743-13.145a1.752 1.752 0 00-1.873 1.394c.531-.217 1.24-.303 1.836-.303h3.785c.597 0 1.304.086 1.835.303a1.755 1.755 0 00-1.161-1.309 1.758 1.758 0 00-.712-.085h-3.71zM7.108 4.53a2.821 2.821 0 00-1.921.477l-.27 2.923c.6.443 1.341.65 2.083.58h3.993a3.043 3.043 0 002.09-.58l-.27-2.923a2.797 2.797 0 00-1.92-.477H7.108zm6.047 4.185l.17 1.842c-.009 1.103-.99 1.497-1.909 1.497H6.584c-.923 0-1.909-.397-1.91-1.48l.171-1.859c.539.296 1.364.47 2.155.47h3.993c.794 0 1.622-.175 2.162-.47zm-8.24-.755h.005c0-.008 0-.017-.003-.025l-.002.025zm2.176 2.574a.67.67 0 11-1.341.017.67.67 0 011.341-.017zm5.017.375a.671.671 0 10-1.125-.734.671.671 0 001.125.734zm-3.92-7.93h1.626v.675H8.189V2.98z"/><path d="M7.617 12.73v-.25h-.172l-.062.16.234.09zm2.749 0l.233-.09-.061-.16h-.172v.25zm-3.371 1.628l-.234-.089-.13.34h.364v-.25zm3.992 0v.25h.363l-.13-.339-.233.09zm-4.25.675v-.25h-.172l-.062.161.234.09zm-.335.878l-.09.233.234.09.09-.234-.234-.09zm4.842-.878l.234-.089-.062-.16h-.172v.25zm.335.878l-.234.09.09.233.233-.09-.09-.233zm.63-.24l.09.233.233-.089-.089-.233-.234.089zm-1.12-2.941v-.25h-.364l.13.339.233-.09zM14 10.544h.25v-.011l-.25.01zm0-.032l.25-.01-.001-.013-.25.023zm-.56-6.051l-.25.005v.018l.25-.023zm-.216-.949l.227-.103-.227.103zm-.57-.788l-.17.185.17-.185zm-.835-.5l-.083.235.083-.235zm-.963-.134v.25h.016l-.016-.25zm-3.71 0l-.016.25h.016v-.25zm-.957.129l.083.236-.083-.236zm-.83.493l-.168-.185.168.185zm-.572.778l-.227-.105.227.105zm-.223.94l.25.022v-.014l-.25-.008zM4 10.544l-.249-.023v.022H4zm2.894 2.186l.234.09.13-.34h-.364v.25zm-1.123 2.94l-.233-.09-.09.234.234.09.09-.234zM6.44 2.846l-.078-.238.078.238zm.705-.081l-.022.249h.022v-.25zM5.4 3.77l-.226-.106.226.106zm-.128.39l-.245-.05-.094.458.433-.177-.094-.232zm7.456-.001l-.095.231.435.178-.095-.46-.245.051zm-.12-.367l-.227.103.227-.103zm-.422-.58l-.168.186.168-.185zm-.62-.362l.08-.237-.08.237zm-.711-.085v.25h.021l-.021-.25zM5.187 5.008l-.142-.206-.096.066-.011.117.249.023zm1.92-.477l-.028.248.014.002h.015v-.25zm-2.19 3.4l-.248-.023-.013.14.113.084.148-.201zM7 8.51v-.25h-.023L7 8.51zm3.993 0l.023-.25h-.023v.25zm2.09-.58l.147.2.114-.083-.013-.14-.249.023zm-.27-2.923l.248-.023-.01-.117-.097-.066-.142.206zm-1.92-.477v.25h.014l.015-.002-.03-.248zm2.432 6.027l.25.002v-.012l-.001-.013-.25.023zm-.17-1.842l.249-.023-.035-.38-.334.183.12.22zm-8.481 1.859l-.249-.023-.001.011v.012h.25zm.171-1.859l.12-.219-.334-.183-.035.38.25.022zm.075-.755v.25h.239l.01-.238-.25-.012zm-.005 0l-.25-.023-.024.273h.274v-.25zm.002-.025l.24-.069-.489.046.249.023zm2.065 2.974l-.21-.137.21.137zm.11-.375l-.25.002v.001l.25-.003zm-.409.626l.098.23-.098-.23zm-.388.041l-.047.246.047-.246zm-.346-.181l.176-.178-.176.178zm.098-1.035l.14.208-.14-.208zm.373-.114v.25h.002l-.002-.25zm.256.05l.094-.232-.094.232zm.217.143l-.176.178.176-.178zm.146.215l-.23.097.23-.097zm5.178.255l-.25.002v.001l.25-.003zm-.11.375l-.209-.137.21.137zm.057-.63l.23-.097-.23.097zm-.146-.215l.176-.178-.176.178zm-.472-.193v.25h.002l-.002-.25zm-.374.114l.14.208-.14-.208zm-.247.303l-.23-.095.23.095zm-.036.388l.245-.05-.245.05zm.531.525l.047-.245-.047.245zm.388-.041l.098.23-.098-.23zM9.814 2.98h.25v-.25h-.25v.25zm-1.625 0v-.25h-.25v.25h.25zm1.625.674v.25h.25v-.25h-.25zm-1.625 0h-.25v.25h.25v-.25zm-.572 9.325h2.749v-.5h-2.75v.5zm-.389 1.467l.622-1.628-.467-.178-.622 1.628.467.178zm3.759-.339H6.995v.5h3.992v-.5zm-.855-1.29l.621 1.63.467-.179-.62-1.628-.468.178zm-3.629 2.126l-.335.878.467.178.335-.877-.467-.179zm4.741-.16H6.737v.5h4.507v-.5zm.568 1.038l-.334-.878-.467.178.334.878.467-.178zm.308-.385l-.63.24.178.468.63-.24-.178-.468zm-1.265-2.618l1.12 2.94.468-.178-1.121-2.94-.467.178zm.561-.34h-.328v.5h.328v-.5zm2.334-1.935c0 .582-.229 1.058-.624 1.392-.398.337-.983.544-1.71.544v.5c.819 0 1.526-.233 2.033-.662.51-.432.801-1.05.801-1.774h-.5zm-.001-.02l.001.03.5-.021-.002-.032-.5.023zm-.56-6.04l.56 6.052.499-.047-.56-6.051-.499.046zm-.194-.869c.121.268.187.557.193.851l.5-.01a2.68 2.68 0 00-.238-1.047l-.455.206zm-.512-.706c.217.198.39.439.512.706l.455-.206a2.679 2.679 0 00-.629-.869l-.338.369zm-.748-.45c.277.098.532.25.748.45l.338-.369a2.678 2.678 0 00-.92-.552l-.166.471zm-.864-.12a2.18 2.18 0 01.864.12l.167-.471a2.704 2.704 0 00-1.063-.148l.032.5zm-3.726 0h3.71v-.5h-3.71v.5zm-.874.116c.275-.096.567-.135.858-.116l.033-.499a2.672 2.672 0 00-1.056.143l.165.472zm-.745.442c.216-.196.47-.346.745-.442l-.165-.472c-.339.118-.65.303-.916.544l.336.37zm-.513.698c.122-.265.297-.502.513-.698l-.336-.37a2.66 2.66 0 00-.631.858l.454.21zm-.2.843c.01-.292.077-.578.2-.843l-.454-.21c-.15.326-.234.678-.246 1.037l.5.016zm-.564 6.128l.563-6.114-.498-.045-.563 6.114.498.045zm2.335 1.914c-.727 0-1.311-.207-1.71-.544-.395-.334-.624-.81-.624-1.393h-.5c0 .726.29 1.343.801 1.775.507.429 1.214.662 2.033.662v-.5zm.31 0h-.31v.5h.31v-.5zm-.89 3.28l1.124-2.94-.467-.18-1.123 2.94.467.18zm.487-.083l-.63-.24-.18.467.631.24.179-.467zm.027-12.594c.195-.064.4-.087.605-.07l.045-.497a2.002 2.002 0 00-.806.092l.156.475zm-.527.304c.153-.136.332-.24.527-.304l-.156-.475c-.26.086-.5.224-.704.405l.333.374zm-.364.488c.087-.186.21-.352.364-.488l-.333-.374a2 2 0 00-.484.651l.453.211zm-.11.334a1.47 1.47 0 01.11-.334l-.453-.21a2.002 2.002 0 00-.147.445l.49.1zm1.59-.603c-.612 0-1.356.088-1.93.322l.19.463c.49-.2 1.161-.285 1.74-.285v-.5zm3.786 0H7.108v.5h3.785v-.5zm1.93.322c-.573-.234-1.316-.322-1.93-.322v.5c.58 0 1.251.085 1.74.284l.19-.462zm-.442-.033c.045.101.08.207.102.315l.49-.102a2.008 2.008 0 00-.137-.419l-.455.206zm-.363-.497c.154.14.277.308.363.497l.455-.206a2.01 2.01 0 00-.483-.662l-.335.371zm-.53-.31c.196.065.376.171.53.31l.335-.37a2.01 2.01 0 00-.706-.415l-.16.474zm-.612-.074c.207-.018.415.007.611.073l.16-.474a2.009 2.009 0 00-.813-.097l.042.498zm-3.73 0l3.709.001v-.5h-3.71v.5zm-1.818 2.2a2.571 2.571 0 011.751-.435l.057-.496c-.737-.086-1.48.1-2.09.519l.282.412zm-.162 2.74l.27-2.923-.498-.046-.27 2.923.498.046zm1.81.308a2.773 2.773 0 01-1.91-.532l-.297.402c.648.48 1.451.703 2.255.628l-.047-.498zm4.017-.001H7v.5h3.993v-.5zm1.94-.532a2.793 2.793 0 01-1.917.533l-.046.498a3.293 3.293 0 002.26-.628l-.296-.403zm-.37-2.698l.27 2.923.498-.046-.27-2.923-.498.046zm-1.64-.252a2.547 2.547 0 011.747.434l.284-.41a3.047 3.047 0 00-2.09-.52l.058.496zm-3.815.002h3.785v-.5H7.108v.5zm6.466 5.754l-.17-1.842-.498.046.17 1.842.498-.046zm-2.158 1.77c.49 0 1.017-.104 1.433-.376.427-.28.72-.73.726-1.369l-.5-.004c-.004.464-.205.762-.5.955-.307.2-.73.294-1.159.294v.5zm-4.832 0h4.832v-.5H6.584v.5zm-2.16-1.73c0 .632.296 1.078.723 1.356.416.269.946.374 1.437.374v-.5c-.431 0-.856-.094-1.165-.294-.296-.192-.494-.486-.495-.937l-.5.001zm.172-1.882l-.171 1.859.498.046.171-1.859-.498-.046zM7 8.936c-.764 0-1.544-.17-2.035-.439l-.24.438c.586.322 1.456.5 2.275.5v-.5zm3.993 0H7v.5h3.993v-.5zm2.042-.44c-.493.27-1.276.44-2.042.44v.5c.822 0 1.694-.18 2.282-.501l-.24-.439zM4.92 7.711h-.005v.5h.005v-.5zm-.243.294a.173.173 0 01-.007-.055l.5.023a.327.327 0 00-.013-.106l-.48.138zm.487-.021l.002-.025-.498-.046-.002.025.498.046zm2.028 3.063a.92.92 0 00.15-.515l-.5.006a.421.421 0 01-.07.235l.42.274zm-.411.344a.92.92 0 00.41-.345l-.418-.273a.421.421 0 01-.188.158l.196.46zm-.533.057a.92.92 0 00.533-.057l-.196-.46a.422.422 0 01-.243.026l-.094.49zm-.475-.25a.92.92 0 00.475.25l.094-.491a.42.42 0 01-.217-.114l-.352.355zm-.255-.47a.92.92 0 00.255.47l.352-.355a.42.42 0 01-.117-.216l-.49.1zm.05-.534a.92.92 0 00-.05.533l.49-.1a.42.42 0 01.023-.244l-.462-.19zm.34-.416a.92.92 0 00-.34.416l.463.19a.421.421 0 01.155-.19l-.278-.416zm.512-.156a.92.92 0 00-.512.156l.278.416a.42.42 0 01.234-.072v-.5zm.35.068a.916.916 0 00-.351-.068l.003.5c.055 0 .109.01.16.031l.188-.463zm.299.197a.916.916 0 00-.299-.197l-.188.463c.05.02.096.051.135.09l.352-.356zm.2.296a.916.916 0 00-.2-.296l-.352.356c.04.038.07.084.092.134l.46-.194zm.072.35a.898.898 0 00-.072-.35l-.46.194c.02.05.032.105.032.16l.5-.004zm4.626.005a.421.421 0 01-.069.235l.419.274a.921.921 0 00.15-.515l-.5.006zm-.033-.16a.43.43 0 01.033.159l.5-.004a.936.936 0 00-.072-.35l-.461.194zm-.091-.135c.039.038.07.084.091.134l.46-.194a.916.916 0 00-.2-.296l-.351.356zm-.136-.09c.05.02.097.051.136.09l.351-.356a.916.916 0 00-.298-.197l-.189.463zm-.16-.03c.055 0 .11.01.16.03l.189-.463a.917.917 0 00-.352-.068l.003.5zm-.235.07a.42.42 0 01.234-.07v-.5a.92.92 0 00-.513.155l.279.416zm-.155.19a.42.42 0 01.155-.19l-.279-.415a.92.92 0 00-.339.416l.463.19zm-.023.244a.42.42 0 01.023-.244l-.463-.19a.92.92 0 00-.05.534l.49-.1zm.116.216a.422.422 0 01-.116-.216l-.49.1a.92.92 0 00.255.471l.351-.355zm.217.114a.421.421 0 01-.217-.114l-.351.355c.13.129.295.216.474.25l.094-.491zm.244-.027a.42.42 0 01-.244.027l-.094.49c.18.035.365.015.533-.056l-.195-.46zm.187-.157a.42.42 0 01-.187.158l.195.46a.921.921 0 00.411-.345l-.419-.273zM9.814 2.73H8.189v.5h1.625v-.5zm.25.925V2.98h-.5v.675h.5zm-1.875.25h1.625v-.5H8.189v.5zm-.25-.925v.675h.5V2.98h-.5z"/></g></g></svg>